<?xml version="1.0" standalone="no"?>
<!DOCTYPE svg PUBLIC "-//W3C//DTD SVG 20010904//EN"
        "http://www.w3.org/TR/2001/REC-SVG-20010904/DTD/svg10.dtd">
<svg width="16" height="16" viewBox="0 0 520 520" fill="none" xmlns="http://www.w3.org/2000/svg">
    <g clip-path="url(#clip0_30_9426)">
        <circle cx="260" cy="259.553" r="250" transform="rotate(45 260 259.553)" fill="#FFDF00"/>
        <mask id="mask0_30_9426" style="mask-type:alpha" maskUnits="userSpaceOnUse" x="10" y="9" width="500"
              height="501">
            <circle cx="260" cy="259.553" r="250" transform="rotate(45 260 259.553)" fill="#FFDF00"/>
        </mask>
        <g mask="url(#mask0_30_9426)">
            <path fill-rule="evenodd" clip-rule="evenodd"
                  d="M69.396 421.92L111.622 379.694L109.665 377.737C102.876 370.948 102.876 359.94 109.665 353.151L131.042 331.774C111.973 296.967 117.179 252.405 146.659 222.925L154.386 215.197L152.467 213.278C146.357 207.168 146.357 197.261 152.467 191.151L167.897 175.721C174.007 169.611 183.914 169.611 190.024 175.721L344.026 329.723C350.136 335.833 350.136 345.74 344.026 351.85L328.596 367.28C322.486 373.39 312.579 373.39 306.469 367.28L304.614 365.425L296.887 373.153C267.402 402.637 222.83 407.84 188.021 388.761L166.648 410.134C159.859 416.923 148.851 416.923 142.062 410.134L140.114 408.186L97.8704 450.429C92.8371 446.134 87.9338 441.607 83.1748 436.848C78.3427 432.016 73.7498 427.035 69.396 421.92ZM205.138 178.027L275.076 108.09C282.943 100.223 295.699 100.223 303.567 108.09C311.435 115.958 311.435 128.714 303.567 136.582L233.63 206.519L205.138 178.027ZM259.388 232.314L315.329 176.372C323.131 168.57 335.78 168.571 343.582 176.372C351.384 184.174 351.384 196.824 343.582 204.626L287.641 260.567L259.388 232.314ZM411.831 244.808L341.893 314.746L313.403 286.256L383.34 216.318C391.208 208.451 403.963 208.451 411.831 216.318C419.698 224.185 419.698 236.941 411.831 244.808Z"
                  fill="#101010"/>
        </g>
    </g>
    <defs>
        <clipPath id="clip0_30_9426">
            <rect width="520" height="520" fill="white"/>
        </clipPath>
    </defs>
</svg>
