<?xml version="1.0" standalone="no"?>
<!DOCTYPE svg PUBLIC "-//W3C//DTD SVG 20010904//EN"
        "http://www.w3.org/TR/2001/REC-SVG-20010904/DTD/svg10.dtd">
<svg version="1.0" xmlns="http://www.w3.org/2000/svg"
     width="1000" height="1000" viewBox="0 0 1000 1000"
     preserveAspectRatio="xMidYMid meet">

    <circle cx="0" cy="0" r="500" fill="#FCDF00" transform="translate(500,500)"/>
    <defs>
        <!-- bottom -->
        <path id="bottom" d="M2048 2683 l-897 -897 52 -60 c141 -163 447 -469 528 -526 l25 -19
898 898 c536 536 897 904 894 912 -3 8 -47 46 -99 86 -116 88 -315 288 -407
408 -38 50 -75 91 -83 93 -8 1 -418 -401 -911 -895z"/>
        <path id="bottom-2" d="M3317 5766 c-48 -54 -136 -178 -206 -291 -78 -124 -155 -340 -192
 -537 -11 -59 -29 -244 -29 -298 0 -104 34 -368 58 -440 77 -241 125 -345 240
 -520 151 -230 423 -465 679 -587 105 -50 304 -117 396 -133 34 -6 87 -16 117
 -22 76 -15 369 -15 455 1 112 21 299 69 368 95 129 48 308 147 417 229 88 67
180 149 180 161 0 17 -2393 2406 -2411 2406 -8 0 -41 -29 -72 -64z"/>

        <!-- bird -->
        <g id="bird">
            <path fill="#231F20" d="M33.161,176.621c1.749,0.671,25.417-21.111,35.663-23.489c9.903-2.295,29.49,1.098,50.777,20.866
				l31.448-25.811c0,0,19.607-16.712,51.486-42.921c27.995-23.006,8.823-55.144,8.823-55.144s-67.51,56.883-69.986,58.79
				c-0.628,0.488-1.187,0.911-1.71,1.305c-12.559,7.344-24.467,5.731-33.45,2.99c-5.251-1.605-10.129-3.52-14.766-4.646
				c-15.864-3.842-31.593,1.621-36.005,17.333c-3.165,11.284,1.027,12.795-3.788,21.633
				C46.521,156.955,31.994,176.178,33.161,176.621z"/>
            <path fill="#231F20" d="M172.01,241.625c0,0-12.797-21.25-43.62-57.416l29.75-24.807l52.701-43.959
				c0,0,19.967,26.363-13.704,56.22l-11.821,10.539c-9.966,8.691-3.698,20.909-3.594,31.241
				C181.933,233.403,176.254,238.062,172.01,241.625z"/>
        </g>

    </defs>

    <g transform=""
       fill="#000000" stroke="none">

        <use href="#bottom" transform="translate(0,1000) scale(0.1,-0.1)"/>
        <use href="#bottom-2" transform="translate(0,1000) scale(0.1,-0.1)"/>
        <use href="#bottom"
             transform="translate(0,1000) scale(0.1,-0.1) translate(5000,5000) rotate(180) translate(-5000,-5000)  "/>
        <use href="#bottom-2"
             transform="translate(0,1000) scale(0.1,-0.1) translate(5000,5000) rotate(180) translate(-5000,-5000)  "/>
        <use href="#bird" transform="translate(510,510) scale(0.4,0.4)"/>
        <use href="#bird" transform="translate(435,435) scale(0.4,0.4)"/>
        <use href="#bird" transform="translate(360,360) scale(0.4,0.4)"/>

    </g>
</svg>
