<svg width="138" height="35" viewBox="0 0 138 35" fill="none" xmlns="http://www.w3.org/2000/svg">
<g clip-path="url(#clip0_1_23)">
<path d="M131.747 25.1333C130.577 25.1333 129.554 24.8918 128.678 24.4089C127.801 23.9133 127.114 23.2207 126.619 22.3311C126.136 21.4415 125.894 20.3931 125.894 19.1858C125.894 17.9785 126.136 16.93 126.619 16.0405C127.102 15.1509 127.782 14.4646 128.658 13.9817C129.535 13.4861 130.565 13.2383 131.747 13.2383C133.195 13.2383 134.396 13.6005 135.349 14.3248C136.303 15.0492 136.919 16.0659 137.198 17.3748H134.587C134.396 16.7521 134.059 16.2819 133.577 15.9642C133.106 15.6465 132.496 15.4877 131.747 15.4877C130.743 15.4877 129.948 15.8117 129.364 16.4598C128.779 17.108 128.487 18.0166 128.487 19.1858C128.487 20.3549 128.779 21.2636 129.364 21.9117C129.948 22.5598 130.743 22.8839 131.747 22.8839C133.322 22.8839 134.288 22.1913 134.644 20.8061H137.256C137.001 22.1913 136.398 23.2588 135.445 24.0086C134.492 24.7584 133.259 25.1333 131.747 25.1333Z" fill="white"/>
<path d="M119.572 25.1333C118.365 25.1333 117.31 24.8918 116.408 24.4089C115.519 23.9133 114.832 23.2143 114.349 22.312C113.866 21.4097 113.625 20.3549 113.625 19.1476C113.625 17.9404 113.86 16.8983 114.33 16.0214C114.813 15.1318 115.493 14.4456 116.37 13.9627C117.247 13.4797 118.283 13.2383 119.477 13.2383C120.621 13.2383 121.606 13.467 122.432 13.9245C123.258 14.3693 123.893 15.0111 124.338 15.8498C124.796 16.6759 125.024 17.6608 125.024 18.8045V19.7576H116.103C116.205 20.7997 116.554 21.6067 117.152 22.1786C117.749 22.7377 118.549 23.0173 119.553 23.0173C120.291 23.0173 120.894 22.8775 121.364 22.598C121.835 22.3184 122.159 21.899 122.337 21.3398H124.967C124.688 22.5344 124.071 23.4685 123.118 24.142C122.178 24.8028 120.996 25.1333 119.572 25.1333ZM116.179 17.9467H122.546C122.445 17.108 122.127 16.4662 121.593 16.0214C121.059 15.5639 120.354 15.3352 119.477 15.3352C118.6 15.3352 117.876 15.5639 117.304 16.0214C116.732 16.4662 116.357 17.108 116.179 17.9467Z" fill="white"/>
<path d="M101.112 29.4795V16.0786H99.7968V13.467H102.504V15.278H103.304C103.686 14.6171 104.213 14.1152 104.886 13.772C105.56 13.4162 106.367 13.2383 107.307 13.2383C108.464 13.2383 109.442 13.4861 110.243 13.9817C111.056 14.4646 111.673 15.1509 112.092 16.0405C112.524 16.93 112.74 17.9785 112.74 19.1858C112.74 20.3931 112.53 21.4479 112.111 22.3501C111.704 23.2397 111.107 23.926 110.319 24.4089C109.544 24.8918 108.61 25.1333 107.517 25.1333C106.653 25.1333 105.897 24.9681 105.249 24.6376C104.613 24.2945 104.124 23.8116 103.781 23.1889H103.705V29.4795H101.112ZM106.85 22.903C107.917 22.903 108.731 22.5725 109.29 21.9117C109.862 21.2509 110.148 20.3422 110.148 19.1858C110.148 18.0293 109.862 17.1207 109.29 16.4598C108.731 15.799 107.917 15.4686 106.85 15.4686C105.897 15.4686 105.134 15.7418 104.562 16.2883C103.991 16.8347 103.705 17.5718 103.705 18.4995V19.872C103.705 20.7997 103.991 21.5368 104.562 22.0833C105.134 22.6297 105.897 22.903 106.85 22.903Z" fill="white"/>
<path d="M94.2422 25.1333C92.6156 25.1333 91.332 24.7965 90.3916 24.123C89.4512 23.4367 88.9365 22.4836 88.8475 21.2636H91.3828C91.4718 21.8863 91.7577 22.3501 92.2407 22.6551C92.7236 22.9601 93.4225 23.1126 94.3375 23.1126C95.9134 23.1126 96.7013 22.6424 96.7013 21.702C96.7013 21.3208 96.5805 21.0221 96.3391 20.8061C96.0976 20.59 95.6973 20.4312 95.1382 20.3295L92.6028 19.853C90.4043 19.4336 89.305 18.3915 89.305 16.7267C89.305 15.6592 89.7244 14.8141 90.5632 14.1914C91.4019 13.556 92.552 13.2383 94.0135 13.2383C95.4876 13.2383 96.6568 13.5623 97.521 14.2105C98.3978 14.8586 98.8871 15.7609 98.9888 16.9173H96.4916C96.3518 16.3328 96.0722 15.9007 95.6528 15.6211C95.2462 15.3415 94.6552 15.2017 93.88 15.2017C93.1938 15.2017 92.6664 15.3161 92.2978 15.5448C91.9293 15.7736 91.745 16.104 91.745 16.5361C91.745 16.8538 91.8594 17.1143 92.0882 17.3177C92.3296 17.5083 92.7045 17.6544 93.2128 17.7561L95.7672 18.2517C96.9237 18.4678 97.7688 18.8426 98.3025 19.3764C98.8363 19.8974 99.1031 20.6028 99.1031 21.4923C99.1031 22.6361 98.6838 23.532 97.845 24.1801C97.0063 24.8156 95.8053 25.1333 94.2422 25.1333Z" fill="white"/>
<path d="M82.5823 25.1333C81.375 25.1333 80.3202 24.8918 79.4179 24.4089C78.5283 23.9133 77.8421 23.2143 77.3591 22.312C76.8762 21.4097 76.6348 20.3549 76.6348 19.1476C76.6348 17.9404 76.8699 16.8983 77.3401 16.0214C77.823 15.1318 78.5029 14.4456 79.3798 13.9627C80.2566 13.4797 81.2924 13.2383 82.4869 13.2383C83.6307 13.2383 84.6156 13.467 85.4416 13.9245C86.2677 14.3693 86.9031 15.0111 87.3479 15.8498C87.8054 16.6759 88.0341 17.6608 88.0341 18.8045V19.7576H79.1129C79.2146 20.7997 79.564 21.6067 80.1613 22.1786C80.7586 22.7377 81.5592 23.0173 82.5632 23.0173C83.3003 23.0173 83.9039 22.8775 84.3741 22.598C84.8443 22.3184 85.1684 21.899 85.3463 21.3398H87.9769C87.6974 22.5344 87.081 23.4685 86.1279 24.142C85.1875 24.8028 84.0056 25.1333 82.5823 25.1333ZM79.1891 17.9467H85.556C85.4543 17.108 85.1366 16.4662 84.6029 16.0214C84.0691 15.5639 83.3638 15.3352 82.4869 15.3352C81.6101 15.3352 80.8857 15.5639 80.3138 16.0214C79.7419 16.4662 79.3671 17.108 79.1891 17.9467Z" fill="white"/>
<path d="M69.7645 24.9015V16.0755H68.4492V13.464H71.1561V15.6562H71.9567C72.2617 14.9064 72.7446 14.3345 73.4055 13.9405C74.079 13.5466 74.8479 13.3496 75.712 13.3496H76.6651V15.5799H75.5976C74.5174 15.5799 73.6978 15.8913 73.1386 16.514C72.5921 17.1367 72.3189 17.9691 72.3189 19.0112V24.9015H69.7645Z" fill="white"/>
<path d="M64.0988 24.9029V13.4654H66.6913V24.9029H64.0988ZM65.3951 12.0929C64.9884 12.0929 64.6389 11.9531 64.3466 11.6735C64.0543 11.3812 63.9082 11.0254 63.9082 10.606C63.9082 10.1993 64.048 9.84987 64.3276 9.55758C64.6199 9.26529 64.9757 9.11914 65.3951 9.11914C65.8017 9.11914 66.1512 9.26529 66.4435 9.55758C66.7358 9.83716 66.8819 10.1866 66.8819 10.606C66.8819 11.0127 66.7358 11.3622 66.4435 11.6544C66.1639 11.9467 65.8145 12.0929 65.3951 12.0929Z" fill="white"/>
<path d="M45.6062 24.9035L41.1074 9.46289H43.8715L47.0549 21.0719H47.1502L50.6005 9.46289H53.0215L56.6815 21.0719H56.7577L59.903 9.46289H62.6861L58.1874 24.9035H55.4805L51.8396 13.0657H51.7633L48.313 24.9035H45.6062Z" fill="white"/>
<circle cx="17.49" cy="17.6682" r="16.4996" transform="rotate(45 17.49 17.6682)" fill="#FFDF00"/>
<mask id="mask0_1_23" style="mask-type:alpha" maskUnits="userSpaceOnUse" x="0" y="1" width="34" height="34">
<circle cx="17.49" cy="17.6682" r="16.4996" transform="rotate(45 17.49 17.6682)" fill="#FFDF00"/>
</mask>
<g mask="url(#mask0_1_23)">
<path fill-rule="evenodd" clip-rule="evenodd" d="M4.91172 28.3832L7.69806 25.5969L7.61236 25.5112C7.1403 25.0391 7.1403 24.2738 7.61235 23.8017L9.04101 22.3731C7.85062 19.9869 8.25013 17.0096 10.2395 15.0202L10.5203 14.7395L10.4331 14.6523C10.0083 14.2274 10.0083 13.5386 10.4331 13.1138L11.3733 12.1736C11.7982 11.7487 12.487 11.7487 12.9118 12.1736L22.9976 22.2593C23.4224 22.6842 23.4224 23.373 22.9976 23.7978L22.0574 24.738C21.6326 25.1629 20.9437 25.1629 20.5189 24.738L20.4351 24.6543L20.1544 24.9351C18.1651 26.9244 15.188 27.3239 12.8019 26.1338L11.3731 27.5625C10.9011 28.0346 10.1357 28.0346 9.6637 27.5625L9.57845 27.4773L6.79098 30.2647C6.45879 29.9813 6.13519 29.6825 5.82109 29.3684C5.50218 29.0495 5.19906 28.7208 4.91172 28.3832ZM13.8708 12.2893L18.4865 7.67354C19.0058 7.15428 19.8476 7.15428 20.3669 7.67354C20.8862 8.19279 20.8862 9.03467 20.3669 9.55393L15.7511 14.1697L13.8708 12.2893ZM17.4508 15.8713L21.1429 12.1793C21.6578 11.6644 22.4926 11.6644 23.0075 12.1793C23.5224 12.6942 23.5224 13.529 23.0075 14.0439L19.3155 17.736L17.4508 15.8713ZM27.5119 16.6969L22.8961 21.3127L21.0158 19.4324L25.6316 14.8166C26.1508 14.2974 26.9927 14.2974 27.5119 14.8166C28.0312 15.3358 28.0312 16.1777 27.5119 16.6969Z" fill="#101010"/>
</g>
</g>
<defs>
<clipPath id="clip0_1_23">
<rect width="138" height="34.5" fill="white" transform="translate(0 0.25)"/>
</clipPath>
</defs>
</svg>
